<?xml version="1.0" encoding="UTF-8"?>
<svg width="24" height="24" viewBox="0 0 24 24" fill="none" xmlns="http://www.w3.org/2000/svg">
  <path d="M14.7 6.3C14.5 6.1 14.3 6 14 6H10C9.7 6 9.5 6.1 9.3 6.3L3.3 12.3C3.1 12.5 3 12.7 3 13C3 13.3 3.1 13.5 3.3 13.7L7.3 17.7C7.5 17.9 7.7 18 8 18C8.3 18 8.5 17.9 8.7 17.7L14.7 11.7C14.9 11.5 15 11.3 15 11V7C15 6.7 14.9 6.5 14.7 6.3ZM7 9C7 8.4 7.4 8 8 8C8.6 8 9 8.4 9 9C9 9.6 8.6 10 8 10C7.4 10 7 9.6 7 9Z" stroke="currentColor" stroke-width="2" stroke-linecap="round" stroke-linejoin="round"/>
  <path d="M21 14L16 19" stroke="currentColor" stroke-width="2" stroke-linecap="round" stroke-linejoin="round"/>
</svg>
